# AST/ASF file generated using VICON BodyLanguage
# -----------------------------------------------
:version 1.10
:name VICON
:units
  mass 1.0
  length 0.45
  angle deg
:documentation
   .ast/.asf automatically generated from VICON data using
   VICON BodyBuilder and BodyLanguage model FoxedUp or BRILLIANT.MOD
:root
   order TX TY TZ RX RY RZ
   axis XYZ
   position 0 0 0  
   orientation 0 0 0 
:bonedata
  begin
     id 1 
     name lhipjoint
     direction 0.716248 -0.617586 0.324924 
     length 2.63557 
     axis 0 0 0  XYZ
  end
  begin
     id 2 
     name lfemur
     direction 0.34202 -0.939693 0  
     length 7.01235  
     axis 0 0 20  XYZ
    dof rx ry rz
    limits (-160.0 20.0)
           (-70.0 70.0)
           (-60.0 70.0)
  end
  begin
     id 3 
     name ltibia
     direction 0.34202 -0.939693 0   
     length 8.14348   
     axis 0 0 20   XYZ
    dof rx
    limits (-10.0 170.0)
  end
  begin
     id 4 
     name lfoot
     direction 0.0982064 -0.26982 0.95789   
     length 1.99077   
     axis -90 7.62852e-016 20   XYZ
    dof rx rz
    limits (-45.0 90.0)
           (-70.0 20.0)
  end
  begin
     id 5 
     name ltoes
     direction 1.53511e-011 -4.21891e-011 1   
     length 0.99735   
     axis -90 7.62852e-016 20   XYZ
    dof rx
    limits (-90.0 20.0)
  end
  begin
     id 6 
     name rhipjoint
     direction -0.687828 -0.642391 0.337975   
     length 2.5338  
     axis 0 0 0  XYZ 
  end
  begin
     id 7 
     name rfemur
     direction -0.34202 -0.939693 0   
     length 6.90199   
     axis 0 0 -20   XYZ
    dof rx ry rz
    limits (-160.0 20.0)
           (-70.0 70.0)
           (-70.0 60.0)
  end
  begin
     id 8 
     name rtibia
     direction -0.34202 -0.939693 0   
     length 8.07725   
     axis 0 0 -20   XYZ
    dof rx
    limits (-10.0 170.0)
 end
 begin
     id 9 
     name rfoot
     direction -0.0912384 -0.250675 0.963762   
     length 2.11621  
     axis -90 -7.62852e-016 -20   XYZ
    dof rx rz
    limits (-45.0 90.0)
           (-20.0 70.0)
  end
  begin
     id 10 
     name rtoes
     direction -1.5359e-011 -4.21894e-011 1   
     length 1.06031   
     axis -90 -7.62852e-016 -20   XYZ
    dof rx
    limits (-90.0 20.0)
  end
  begin
     id 11 
     name lowerback
     direction -0.0403572 0.987953 -0.149396   
     length 2.05637   
     axis 0 0 0   XYZ
    dof rx ry rz
    limits (-20.0 45.0)
           (-30.0 30.0)
           (-30.0 30.0)
  end
  begin
     id 12 
     name upperback
     direction -0.00512151 0.997598 0.0690792   
     length 2.01086   
     axis 0 0 0   XYZ
    dof rx ry rz
    limits (-20.0 45.0)
           (-30.0 30.0)
           (-30.0 30.0)
  end
  begin
     id 13 
     name thorax
     direction 0.0136133 0.989392 0.14463   
     length 2.09035   
     axis 0 0 0   XYZ
    dof rx ry rz
    limits (-20.0 45.0)
           (-30.0 30.0)
           (-30.0 30.0)
  end
  begin
     id 14 
     name lowerneck
     direction 0.0250714 0.992811 0.11704   
     length 1.70806   
     axis 0 0 0   XYZ
    dof rx ry rz
    limits (-20.0 45.0)
           (-30.0 30.0)
           (-30.0 30.0)
  end
  begin
     id 15 
     name upperneck
     direction -0.0519205 0.998394 -0.0226787   
     length 1.6689   
     axis 0 0 0   XYZ
    dof rx ry rz
    limits (-20.0 45.0)
           (-30.0 30.0)
           (-30.0 30.0)
  end
  begin
     id 16
     name head
     direction -0.0201693 0.999547 -0.0223192  
     length 1.83412  
     axis 0 0 0   XYZ
    dof rx ry rz
    limits (-20.0 45.0)
           (-30.0 30.0)
           (-30.0 30.0)
  end
  begin
     id 17 
     name lclavicle
     direction 0.89585 0.444077 -0.0157448  
     length 3.39587  
     axis 0 0 0   XYZ
    dof ry rz
    limits (-20.0 10.0)
           (0.0 20.0)
  end
  begin
     id 18 
     name lhumerus
     direction 1 -4.48956e-011 1.99132e-028   
     length 5.79199   
     axis 180 -30 -90   XYZ
    dof rx ry rz
    limits (-60.0 90.0)
           (-90.0 90.0)
           (-90.0 90.0)
  end
  begin
     id 19
     name lradius
     direction 1 -4.48974e-011 8.72912e-028   
     length 3.49908   
     axis 180 -30 -90   XYZ
    dof rx
    limits (-10.0 170.0)
  end
  begin
     id 20
     name lwrist
     direction 1 -4.48994e-011 4.76442e-027   
     length 1.74954   
     axis -3.27502e-015 90 90   XYZ
    dof ry
    limits (-180.0 0.0)
 end
  begin
     id 21 
     name lhand
     direction 1 -4.48945e-011 9.531e-027   
     length 0.593861   
     axis -6.08098e-015 90 90   XYZ
    dof rx rz
    limits (-90.0 90.0)
           (-45.0 45.0)
  end
  begin
     id 22 
     name lfingers
     direction 1 -4.48945e-011 1.9062e-026   
     length 0.478786   
     axis -1.21619e-014 90 90   XYZ
    dof rx
    limits (0.0 90.0)
  end
  begin
     id 23
     name lthumb
     direction 0.707107 -6.34904e-011 0.707107   
     length 0.687444   
     axis -90 45 -9.86923e-015   XYZ
    dof rx rz
    limits (-45.0 45.0)
           (-45.0 45.0)
  end
  begin
     id 24 
     name rclavicle
     direction -0.940466 0.338394 0.0318182   
     length 3.51226  
     axis 0 0 0   XYZ 
    dof ry rz
    limits (-10.0 20.0)
           (-20.0 0.0)
  end
  begin
     id 25 
     name rhumerus
     direction -1 -4.48976e-011 2.0905e-027  
     length 5.73799   
     axis 180 30 90   XYZ
    dof rx ry rz
    limits (-90.0 60.0)
           (-90.0 90.0)
           (-90.0 90.0)
  end
  begin
     id 26 
     name rradius
     direction -1 -4.48968e-011 -9.39692e-029   
     length 3.57916   
     axis 180 30 90   XYZ
    dof rx
    limits (-10.0 170.0)
  end
  begin
     id 27 
     name rwrist
     direction -1 -4.48959e-011 4.7652e-027   
     length 1.78958   
     axis -3.27502e-015 -90 -90   XYZ
    dof ry
    limits (-180.0 0.0)
  end
  begin
     id 28
     name rhand
     direction -1 -4.49042e-011 9.5267e-027   
     length 0.615577   
     axis -6.08098e-015 -90 -90   XYZ
    dof rx rz
    limits (-90.0 90.0)
           (-45.0 45.0)
  end
  begin
     id 29
     name rfingers
     direction -1 -4.48935e-011 1.90629e-026   
     length 0.496294   
     axis -1.21619e-014 -90 -90   XYZ
    dof rx
    limits (0.0 90.0)
  end
  begin
     id 30
     name rthumb
     direction -0.707107 -6.34977e-011 0.707107   
     length 0.712582   
     axis -90 -45 9.86923e-015   XYZ
    dof rx rz
    limits (-45.0 45.0)
           (-45.0 45.0)
  end
:hierarchy
  begin
    root lhipjoint rhipjoint lowerback
    lhipjoint lfemur
    lfemur ltibia
    ltibia lfoot
    lfoot ltoes
    rhipjoint rfemur
    rfemur rtibia
    rtibia rfoot
    rfoot rtoes
    lowerback upperback
    upperback thorax
    thorax lowerneck lclavicle rclavicle
    lowerneck upperneck
    upperneck head
    lclavicle lhumerus
    lhumerus lradius
    lradius lwrist
    lwrist lhand lthumb
    lhand lfingers
    rclavicle rhumerus
    rhumerus rradius
    rradius rwrist
    rwrist rhand rthumb
    rhand rfingers
  end

#!OML:ASF H:\Terrain\Patient Classification 1\PaulMetrics\March17Take5\PaulMetrics.ASF
:FULLY-SPECIFIED
:DEGREES
189
root 8.75581 17.4633 2.5243 4.1292 -7.64922 5.97185
lowerback 1.77174 -0.0364261 -9.0559
upperback -2.73123 -0.454788 -2.08808
thorax -3.79942 -0.00162651 2.92095
lowerneck -2.26014 8.70055 8.3577
upperneck 9.32316 12.4047 -11.5249
head 4.39573 5.94459 -4.22211
rclavicle -1.34692e-014 1.19271e-015
rhumerus -54.0787 10.6515 -91.905
rradius 39.5887
rwrist -6.4046
rhand -14.4081 -30.4964
rfingers 7.12502
rthumb 11.7356 -60.1477
lclavicle -1.34692e-014 1.19271e-015
lhumerus -41.2097 -12.5049 80.4519
lradius 52.4722
lwrist 23.2712
lhand -13.5418 -21.9323
lfingers 7.12502
lthumb 12.5709 7.66954
rfemur -36.5741 0.0402898 15.2004
rtibia 55.2124
rfoot -11.3363 -9.80582
rtoes -15.4461
lfemur -11.8198 -7.08732 -30.5856
ltibia 29.5626
lfoot -20.7814 3.09582
ltoes 6.48999
190
root 8.73224 17.4614 2.67088 4.17912 -7.38809 5.82373
lowerback 1.77723 -0.114823 -8.81663
upperback -2.71372 -0.544758 -1.95103
thorax -3.77173 -0.0522667 2.93549
lowerneck -2.10142 8.7306 8.46343
upperneck 9.25617 12.4761 -11.8147
head 4.38112 5.97827 -4.32998
rclavicle -2.52526e-014 -7.55382e-015
rhumerus -54.3229 10.9907 -92.0268
rradius 39.7191
rwrist -6.8606
rhand -14.3742 -30.6934
rfingers 7.12502
rthumb 11.7683 -60.3428
lclavicle -2.52526e-014 -7.55382e-015
lhumerus -41.1088 -12.5226 80.5047
lradius 53.3474
lwrist 23.2911
lhand -13.3905 -22.2826
lfingers 7.12502
lthumb 12.7167 7.31015
rfemur -36.7847 0.293735 15.1418
rtibia 53.0166
rfoot -12.0486 -10.334
rtoes -11.6056
lfemur -10.9442 -7.0546 -30.4307
ltibia 28.9091
lfoot -20.9997 2.80531
ltoes 5.51475
191
root 8.70376 17.473 2.82236 4.18199 -7.19062 5.85307
lowerback 1.75446 -0.10802 -8.7926
upperback -2.70551 -0.528824 -1.87537
thorax -3.75126 -0.0447325 3.00004
lowerneck -1.9681 8.52751 8.3333
upperneck 9.15645 12.2251 -12.0082
head 4.30582 5.85005 -4.39675
rclavicle -6.11263e-015 -3.53837e-014
rhumerus -54.4617 11.0255 -91.9566
rradius 39.7408
rwrist -7.04975
rhand -13.9946 -31.2947
rfingers 7.12502
rthumb 12.1343 -60.9228
lclavicle -6.11263e-015 -3.53837e-014
lhumerus -40.8203 -12.8853 80.6155
lradius 54.0524
lwrist 23.5973
lhand -13.2674 -22.2249
lfingers 7.12502
lthumb 12.8354 7.36043
rfemur -36.8586 0.64706 14.8405
rtibia 50.7082
rfoot -12.9197 -10.6413
rtoes -6.46675
lfemur -9.97641 -6.81654 -30.4859
ltibia 28.1587
lfoot -21.2725 2.88379
ltoes 3.34435
192
root 8.67363 17.4786 2.97517 4.12993 -7.03371 6.32626
lowerback 1.79267 -0.0542675 -9.24123
upperback -2.72876 -0.482878 -1.96769
thorax -3.80495 -0.0079037 3.15055
lowerneck -4.83175 9.1802 6.76163
upperneck 12.0669 13.0797 -9.75167
head 5.51753 6.1537 -3.21649
rclavicle -3.45311e-015 -1.31198e-014
rhumerus -54.5585 10.6048 -91.6919
rradius 39.6605
rwrist -6.62633
rhand -13.5337 -31.1652
rfingers 7.12502
rthumb 12.5787 -60.7665
lclavicle -3.45311e-015 -1.31198e-014
lhumerus -40.546 -13.3431 80.6146
lradius 54.8329
lwrist 23.8078
lhand -12.9487 -21.714
lfingers 7.12502
lthumb 13.1426 7.85179
rfemur -36.9189 0.85946 14.0719
rtibia 48.3675
rfoot -13.2308 -10.8261
rtoes -4.37349
lfemur -8.94401 -6.8651 -31.0468
ltibia 27.3713
lfoot -21.453 3.45448
ltoes 0.207294
193
root 8.64282 17.4785 3.12431 4.16185 -6.7636 6.65538
lowerback 1.78059 -0.15028 -9.54953
upperback -2.68424 -0.619551 -2.0342
thorax -3.73526 -0.0722732 3.25869
lowerneck -3.24846 8.54068 7.85354
upperneck 10.3397 12.2192 -11.1714
head 4.79879 5.79611 -3.99292
rclavicle 1.04315e-014 -2.14687e-014
rhumerus -54.5606 10.6175 -91.8059
rradius 39.6976
rwrist -6.67145
rhand -13.4459 -31.0091
rfingers 7.12502
rthumb 12.6633 -60.6052
lclavicle 1.04315e-014 -2.14687e-014
lhumerus -40.1675 -13.4998 80.4561
lradius 55.4223
lwrist 23.8297
lhand -13.0828 -22.0315
lfingers 7.12502
lthumb 13.0134 7.54262
rfemur -37.0324 0.991714 13.4668
rtibia 45.9595
rfoot -13.1353 -11.1327
rtoes -6.54439
lfemur -8.00086 -7.00921 -31.4102
ltibia 26.5954
lfoot -21.3037 3.53017
ltoes 0.281741
194
root 8.60528 17.481 3.26917 4.26196 -6.60771 6.60538
lowerback 1.66628 -0.217816 -9.58719
upperback -2.60496 -0.68811 -1.95754
thorax -3.57701 -0.113095 3.36197
lowerneck -1.08189 7.89633 8.79382
upperneck 7.57115 11.3342 -12.9659
head 3.66791 5.45889 -4.88765
rclavicle -1.21134e-015 -1.76918e-014
rhumerus -54.5257 10.8791 -92.0363
rradius 39.7928
rwrist -6.91023
rhand -13.732 -31.247
rfingers 7.12502
rthumb 12.3875 -60.86
lclavicle -1.21134e-015 -1.76918e-014
lhumerus -39.7571 -13.5323 80.3598
lradius 55.9553
lwrist 24.0063
lhand -13.378 -22.6818
lfingers 7.12502
lthumb 12.7288 6.91021
rfemur -37.1678 1.71194 13.1557
rtibia 43.4715
rfoot -13.1559 -11.6582
rtoes -8.09628
lfemur -7.15573 -6.71955 -31.2886
ltibia 25.789
lfoot -21.1575 3.13022
ltoes 0.557117
195
root 8.57258 17.4826 3.41362 4.27985 -6.51862 6.54089
lowerback 1.71646 -0.197248 -9.56837
upperback -2.59541 -0.662108 -1.85922
thorax -3.59772 -0.0984845 3.4533
lowerneck 0.947681 7.27884 9.48218
upperneck 5.03467 10.4605 -14.4706
head 2.59525 5.13879 -5.63289
rclavicle -1.81841e-014 -1.78906e-015
rhumerus -54.4761 10.8945 -92.0024
rradius 39.5607
rwrist -6.61942
rhand -13.9344 -31.0222
rfingers 7.12502
rthumb 12.1924 -60.6469
lclavicle -1.81841e-014 -1.78906e-015
lhumerus -39.5199 -13.6404 80.3926
lradius 56.6183
lwrist 24.1607
lhand -13.4932 -22.802
lfingers 7.12502
lthumb 12.6178 6.79692
rfemur -37.1912 2.57784 12.7832
rtibia 40.9567
rfoot -12.8794 -11.9231
rtoes -8.27487
lfemur -6.20561 -6.49341 -31.184
ltibia 24.9489
lfoot -21.0499 3.16873
ltoes -2.27016
196
root 8.5455 17.4884 3.56214 4.33371 -6.27473 6.47158
lowerback 1.78894 -0.203767 -9.4107
upperback -2.60492 -0.67271 -1.80755
thorax -3.64698 -0.104746 3.42078
lowerneck 2.49202 6.81888 10.1487
upperneck 3.03893 9.79147 -15.6867
head 1.76569 4.90829 -6.24325
rclavicle 1.79854e-014 4.77083e-015
rhumerus -54.4191 10.8468 -92.0021
rradius 39.3402
rwrist -6.51874
rhand -14.0277 -30.7211
rfingers 7.12502
rthumb 12.1024 -60.3511
lclavicle 1.79854e-014 4.77083e-015
lhumerus -39.3043 -14.0436 80.4806
lradius 57.2956
lwrist 24.4456
lhand -13.8997 -22.7725
lfingers 7.12502
lthumb 12.2258 6.85015
rfemur -37.1275 3.15865 12.3881
rtibia 38.4949
rfoot -12.8393 -11.609
rtoes -6.75569
lfemur -5.18578 -6.66844 -31.1333
ltibia 24.056
lfoot -20.9516 3.55157
ltoes -4.87285
197
root 8.51306 17.4876 3.71489 4.40486 -6.03286 6.49514
lowerback 1.69454 -0.212603 -9.36338
upperback -2.57334 -0.669478 -1.82027
thorax -3.56063 -0.109138 3.3804
lowerneck 3.5748 6.49964 10.5924
upperneck 1.61163 9.31111 -16.3985
head 1.16288 4.748 -6.62499
rclavicle -6.51175e-015 1.11319e-014
rhumerus -54.4644 10.7255 -92.0914
rradius 39.4062
rwrist -6.70828
rhand -14.0746 -30.8338
rfingers 7.12502
rthumb 12.0572 -60.4665
lclavicle -6.51175e-015 1.11319e-014
lhumerus -39.0841 -14.5001 80.5024
lradius 57.9199
lwrist 24.6663
lhand -14.2541 -23.0418
lfingers 7.12502
lthumb 11.8841 6.60094
rfemur -37.0837 3.78073 11.8869
rtibia 36.1645
rfoot -12.861 -11.5496
rtoes -9.70873
lfemur -4.09116 -6.92447 -31.1556
ltibia 23.0385
lfoot -21.0388 3.49107
ltoes -4.77936
